<svg xmlns="http://www.w3.org/2000/svg" width="1920" height="1080" viewBox="0 0 1920 1080">
  <defs>
    <linearGradient id="wallBg" x1="0" y1="0" x2="0" y2="1">
      <stop offset="0%" stop-color="#f5ead5"/>
      <stop offset="100%" stop-color="#e8d9c0"/>
    </linearGradient>
    <linearGradient id="wood" x1="0" y1="0" x2="0" y2="1">
      <stop offset="0%" stop-color="#8b6b4a"/>
      <stop offset="50%" stop-color="#7a5c3e"/>
      <stop offset="100%" stop-color="#6b4e35"/>
    </linearGradient>
    <linearGradient id="woodSide" x1="0" y1="0" x2="0" y2="1">
      <stop offset="0%" stop-color="#6b4e35"/>
      <stop offset="100%" stop-color="#5a4030"/>
    </linearGradient>
    <linearGradient id="warmLight" x1="0.5" y1="0" x2="0.5" y2="1">
      <stop offset="0%" stop-color="#ffeedd" stop-opacity="0.3"/>
      <stop offset="100%" stop-color="#ffeedd" stop-opacity="0"/>
    </linearGradient>
  </defs>
  <!-- Background wall -->
  <rect width="1920" height="1080" fill="url(#wallBg)"/>
  <!-- Warm light from above -->
  <rect width="1920" height="1080" fill="url(#warmLight)"/>
  <!-- Bookshelf frame - left side -->
  <rect x="80" y="40" width="40" height="1000" fill="url(#woodSide)"/>
  <!-- Bookshelf frame - right side -->
  <rect x="1800" y="40" width="40" height="1000" fill="url(#woodSide)"/>
  <!-- Bookshelf frame - top -->
  <rect x="80" y="40" width="1760" height="20" fill="url(#wood)"/>
  <!-- Shelf 1 -->
  <rect x="80" y="240" width="1760" height="18" fill="url(#wood)"/>
  <!-- Shelf 2 -->
  <rect x="80" y="460" width="1760" height="18" fill="url(#wood)"/>
  <!-- Shelf 3 -->
  <rect x="80" y="680" width="1760" height="18" fill="url(#wood)"/>
  <!-- Shelf 4 -->
  <rect x="80" y="900" width="1760" height="18" fill="url(#wood)"/>
  <!-- Bottom -->
  <rect x="80" y="1020" width="1760" height="20" fill="url(#wood)"/>
  <!-- Shelf back panels (darker) -->
  <rect x="120" y="60" width="1680" height="180" fill="#d4c4a8" opacity="0.5"/>
  <rect x="120" y="258" width="1680" height="202" fill="#d4c4a8" opacity="0.5"/>
  <rect x="120" y="478" width="1680" height="202" fill="#d4c4a8" opacity="0.5"/>
  <rect x="120" y="698" width="1680" height="202" fill="#d4c4a8" opacity="0.5"/>
  <!-- Row 1 books -->
  <rect x="150" y="80" width="30" height="158" rx="2" fill="#c0392b"/>
  <rect x="185" y="95" width="25" height="143" rx="2" fill="#2980b9"/>
  <rect x="215" y="85" width="35" height="153" rx="2" fill="#27ae60"/>
  <rect x="255" y="100" width="22" height="138" rx="2" fill="#f39c12"/>
  <rect x="282" y="78" width="28" height="160" rx="2" fill="#8e44ad"/>
  <rect x="315" y="90" width="32" height="148" rx="2" fill="#d35400"/>
  <rect x="352" y="82" width="20" height="156" rx="2" fill="#2c3e50"/>
  <rect x="377" y="98" width="26" height="140" rx="2" fill="#16a085"/>
  <rect x="408" y="88" width="30" height="150" rx="2" fill="#c0392b" opacity="0.8"/>
  <rect x="443" y="105" width="24" height="133" rx="2" fill="#34495e"/>
  <rect x="500" y="82" width="28" height="156" rx="2" fill="#e74c3c"/>
  <rect x="533" y="95" width="32" height="143" rx="2" fill="#3498db"/>
  <rect x="570" y="78" width="25" height="160" rx="2" fill="#f1c40f"/>
  <rect x="600" y="90" width="30" height="148" rx="2" fill="#1abc9c"/>
  <rect x="635" y="100" width="22" height="138" rx="2" fill="#9b59b6"/>
  <!-- Globe decoration -->
  <circle cx="720" cy="200" r="30" fill="#7a9ab5" opacity="0.6"/>
  <ellipse cx="720" cy="200" rx="30" ry="8" fill="none" stroke="#5a7a95" stroke-width="1"/>
  <rect x="750" y="82" width="28" height="156" rx="2" fill="#e67e22"/>
  <rect x="783" y="95" width="35" height="143" rx="2" fill="#2ecc71"/>
  <rect x="823" y="85" width="22" height="153" rx="2" fill="#e74c3c"/>
  <rect x="850" y="100" width="30" height="138" rx="2" fill="#3498db"/>
  <rect x="920" y="78" width="26" height="160" rx="2" fill="#8e44ad"/>
  <rect x="951" y="92" width="32" height="146" rx="2" fill="#d4a017"/>
  <rect x="988" y="85" width="24" height="153" rx="2" fill="#c0392b"/>
  <rect x="1050" y="90" width="30" height="148" rx="2" fill="#2c3e50"/>
  <rect x="1085" y="80" width="28" height="158" rx="2" fill="#27ae60"/>
  <rect x="1118" y="100" width="25" height="138" rx="2" fill="#e74c3c"/>
  <rect x="1148" y="88" width="32" height="150" rx="2" fill="#2980b9"/>
  <rect x="1185" y="95" width="22" height="143" rx="2" fill="#f39c12"/>
  <rect x="1250" y="82" width="30" height="156" rx="2" fill="#16a085"/>
  <rect x="1285" y="78" width="26" height="160" rx="2" fill="#9b59b6"/>
  <rect x="1316" y="95" width="35" height="143" rx="2" fill="#d35400"/>
  <rect x="1356" y="88" width="24" height="150" rx="2" fill="#2c3e50"/>
  <rect x="1420" y="85" width="28" height="153" rx="2" fill="#e74c3c"/>
  <rect x="1453" y="100" width="30" height="138" rx="2" fill="#3498db"/>
  <rect x="1488" y="80" width="25" height="158" rx="2" fill="#27ae60"/>
  <rect x="1550" y="90" width="32" height="148" rx="2" fill="#8e44ad"/>
  <rect x="1587" y="82" width="22" height="156" rx="2" fill="#f1c40f"/>
  <rect x="1640" y="95" width="28" height="143" rx="2" fill="#c0392b"/>
  <rect x="1673" y="85" width="30" height="153" rx="2" fill="#1abc9c"/>
  <!-- Row 2 books -->
  <rect x="150" y="300" width="28" height="158" rx="2" fill="#3498db"/>
  <rect x="183" y="310" width="32" height="148" rx="2" fill="#e74c3c"/>
  <rect x="220" y="295" width="25" height="163" rx="2" fill="#f39c12"/>
  <rect x="250" y="315" width="30" height="143" rx="2" fill="#1abc9c"/>
  <rect x="285" y="300" width="22" height="158" rx="2" fill="#9b59b6"/>
  <rect x="312" y="308" width="35" height="150" rx="2" fill="#2c3e50"/>
  <rect x="352" y="295" width="24" height="163" rx="2" fill="#e67e22"/>
  <rect x="381" y="310" width="28" height="148" rx="2" fill="#27ae60"/>
  <rect x="414" y="300" width="30" height="158" rx="2" fill="#c0392b"/>
  <rect x="449" y="320" width="26" height="138" rx="2" fill="#2980b9"/>
  <!-- Decorative vase -->
  <ellipse cx="530" cy="440" rx="18" ry="25" fill="#b87333"/>
  <rect x="520" y="410" width="20" height="8" rx="3" fill="#a06025"/>
  <rect x="570" y="298" width="32" height="160" rx="2" fill="#8e44ad"/>
  <rect x="607" y="312" width="25" height="146" rx="2" fill="#d4a017"/>
  <rect x="637" y="300" width="30" height="158" rx="2" fill="#34495e"/>
  <rect x="672" y="310" width="28" height="148" rx="2" fill="#e74c3c"/>
  <rect x="705" y="295" width="22" height="163" rx="2" fill="#2ecc71"/>
  <rect x="770" y="305" width="32" height="153" rx="2" fill="#3498db"/>
  <rect x="807" y="298" width="26" height="160" rx="2" fill="#f1c40f"/>
  <rect x="838" y="315" width="30" height="143" rx="2" fill="#c0392b"/>
  <rect x="900" y="300" width="28" height="158" rx="2" fill="#16a085"/>
  <rect x="933" y="310" width="35" height="148" rx="2" fill="#9b59b6"/>
  <rect x="973" y="295" width="24" height="163" rx="2" fill="#e67e22"/>
  <rect x="1040" y="308" width="30" height="150" rx="2" fill="#2c3e50"/>
  <rect x="1075" y="300" width="25" height="158" rx="2" fill="#27ae60"/>
  <rect x="1105" y="315" width="32" height="143" rx="2" fill="#e74c3c"/>
  <rect x="1142" y="298" width="22" height="160" rx="2" fill="#3498db"/>
  <rect x="1200" y="305" width="28" height="153" rx="2" fill="#f39c12"/>
  <rect x="1233" y="295" width="30" height="163" rx="2" fill="#8e44ad"/>
  <rect x="1268" y="312" width="25" height="146" rx="2" fill="#d35400"/>
  <rect x="1330" y="300" width="32" height="158" rx="2" fill="#1abc9c"/>
  <rect x="1367" y="310" width="24" height="148" rx="2" fill="#c0392b"/>
  <rect x="1396" y="295" width="28" height="163" rx="2" fill="#2980b9"/>
  <rect x="1460" y="308" width="30" height="150" rx="2" fill="#34495e"/>
  <rect x="1495" y="300" width="35" height="158" rx="2" fill="#27ae60"/>
  <rect x="1535" y="315" width="22" height="143" rx="2" fill="#e74c3c"/>
  <rect x="1590" y="298" width="28" height="160" rx="2" fill="#f1c40f"/>
  <rect x="1623" y="305" width="30" height="153" rx="2" fill="#9b59b6"/>
  <rect x="1658" y="310" width="26" height="148" rx="2" fill="#16a085"/>
  <!-- Row 3 books -->
  <rect x="150" y="520" width="30" height="158" rx="2" fill="#f39c12"/>
  <rect x="185" y="530" width="25" height="148" rx="2" fill="#9b59b6"/>
  <rect x="215" y="515" width="32" height="163" rx="2" fill="#2ecc71"/>
  <rect x="252" y="525" width="28" height="153" rx="2" fill="#e74c3c"/>
  <rect x="285" y="518" width="24" height="160" rx="2" fill="#3498db"/>
  <rect x="314" y="535" width="30" height="143" rx="2" fill="#2c3e50"/>
  <rect x="349" y="520" width="22" height="158" rx="2" fill="#d35400"/>
  <!-- Bookend / small clock -->
  <circle cx="420" cy="650" r="22" fill="#b8a080" stroke="#8b7060" stroke-width="2"/>
  <line x1="420" y1="650" x2="420" y2="635" stroke="#5a4030" stroke-width="1.5"/>
  <line x1="420" y1="650" x2="430" y2="655" stroke="#5a4030" stroke-width="1.5"/>
  <rect x="470" y="515" width="28" height="163" rx="2" fill="#1abc9c"/>
  <rect x="503" y="528" width="32" height="150" rx="2" fill="#c0392b"/>
  <rect x="540" y="520" width="25" height="158" rx="2" fill="#2980b9"/>
  <rect x="570" y="535" width="30" height="143" rx="2" fill="#f1c40f"/>
  <rect x="605" y="515" width="26" height="163" rx="2" fill="#8e44ad"/>
  <rect x="670" y="525" width="28" height="153" rx="2" fill="#e67e22"/>
  <rect x="703" y="518" width="35" height="160" rx="2" fill="#27ae60"/>
  <rect x="743" y="530" width="22" height="148" rx="2" fill="#34495e"/>
  <rect x="800" y="520" width="30" height="158" rx="2" fill="#e74c3c"/>
  <rect x="835" y="515" width="25" height="163" rx="2" fill="#3498db"/>
  <rect x="865" y="535" width="32" height="143" rx="2" fill="#16a085"/>
  <rect x="930" y="518" width="24" height="160" rx="2" fill="#9b59b6"/>
  <rect x="959" y="528" width="28" height="150" rx="2" fill="#f39c12"/>
  <rect x="992" y="520" width="30" height="158" rx="2" fill="#c0392b"/>
  <rect x="1060" y="525" width="32" height="153" rx="2" fill="#2c3e50"/>
  <rect x="1097" y="515" width="22" height="163" rx="2" fill="#d35400"/>
  <rect x="1124" y="530" width="28" height="148" rx="2" fill="#2ecc71"/>
  <rect x="1190" y="520" width="30" height="158" rx="2" fill="#e74c3c"/>
  <rect x="1225" y="535" width="25" height="143" rx="2" fill="#2980b9"/>
  <rect x="1255" y="518" width="35" height="160" rx="2" fill="#f1c40f"/>
  <rect x="1320" y="528" width="24" height="150" rx="2" fill="#8e44ad"/>
  <rect x="1349" y="515" width="28" height="163" rx="2" fill="#1abc9c"/>
  <rect x="1382" y="525" width="30" height="153" rx="2" fill="#34495e"/>
  <rect x="1450" y="520" width="26" height="158" rx="2" fill="#27ae60"/>
  <rect x="1481" y="530" width="32" height="148" rx="2" fill="#e74c3c"/>
  <rect x="1518" y="518" width="22" height="160" rx="2" fill="#3498db"/>
  <rect x="1580" y="535" width="28" height="143" rx="2" fill="#c0392b"/>
  <rect x="1613" y="520" width="30" height="158" rx="2" fill="#9b59b6"/>
  <rect x="1648" y="525" width="25" height="153" rx="2" fill="#f39c12"/>
  <!-- Row 4 books (fewer, more sparse) -->
  <rect x="150" y="740" width="32" height="158" rx="2" fill="#2c3e50"/>
  <rect x="187" y="750" width="25" height="148" rx="2" fill="#e74c3c"/>
  <rect x="217" y="738" width="28" height="160" rx="2" fill="#27ae60"/>
  <rect x="250" y="755" width="30" height="143" rx="2" fill="#3498db"/>
  <rect x="285" y="742" width="22" height="156" rx="2" fill="#f39c12"/>
  <rect x="350" y="748" width="35" height="150" rx="2" fill="#9b59b6"/>
  <rect x="390" y="738" width="24" height="160" rx="2" fill="#d35400"/>
  <!-- Picture frame on shelf -->
  <rect x="460" y="770" width="60" height="80" rx="3" fill="#5a4030" stroke="#8b6b4a" stroke-width="3"/>
  <rect x="468" y="778" width="44" height="64" fill="#c8b8a0"/>
  <rect x="560" y="740" width="28" height="158" rx="2" fill="#1abc9c"/>
  <rect x="593" y="752" width="30" height="146" rx="2" fill="#c0392b"/>
  <rect x="628" y="738" width="25" height="160" rx="2" fill="#2980b9"/>
  <rect x="690" y="745" width="32" height="153" rx="2" fill="#f1c40f"/>
  <rect x="727" y="740" width="22" height="158" rx="2" fill="#8e44ad"/>
  <rect x="754" y="755" width="28" height="143" rx="2" fill="#e67e22"/>
  <rect x="820" y="742" width="30" height="156" rx="2" fill="#27ae60"/>
  <rect x="855" y="738" width="35" height="160" rx="2" fill="#34495e"/>
  <rect x="895" y="750" width="24" height="148" rx="2" fill="#e74c3c"/>
  <rect x="960" y="740" width="28" height="158" rx="2" fill="#3498db"/>
  <rect x="993" y="748" width="30" height="150" rx="2" fill="#16a085"/>
  <rect x="1028" y="755" width="25" height="143" rx="2" fill="#9b59b6"/>
  <rect x="1090" y="738" width="32" height="160" rx="2" fill="#f39c12"/>
  <rect x="1127" y="745" width="22" height="153" rx="2" fill="#c0392b"/>
  <rect x="1154" y="740" width="28" height="158" rx="2" fill="#2c3e50"/>
  <rect x="1220" y="752" width="30" height="146" rx="2" fill="#d35400"/>
  <rect x="1255" y="738" width="35" height="160" rx="2" fill="#2ecc71"/>
  <rect x="1295" y="748" width="24" height="150" rx="2" fill="#e74c3c"/>
  <rect x="1360" y="740" width="28" height="158" rx="2" fill="#2980b9"/>
  <rect x="1393" y="755" width="30" height="143" rx="2" fill="#f1c40f"/>
  <rect x="1428" y="738" width="25" height="160" rx="2" fill="#8e44ad"/>
  <rect x="1490" y="745" width="32" height="153" rx="2" fill="#1abc9c"/>
  <rect x="1527" y="740" width="22" height="158" rx="2" fill="#34495e"/>
  <rect x="1580" y="750" width="28" height="148" rx="2" fill="#27ae60"/>
  <rect x="1613" y="738" width="30" height="160" rx="2" fill="#e74c3c"/>
  <rect x="1648" y="748" width="25" height="150" rx="2" fill="#3498db"/>
  <!-- Warm overlay -->
  <rect width="1920" height="1080" fill="#f5e0c0" opacity="0.06"/>
</svg>