<svg xmlns="http://www.w3.org/2000/svg" width="1920" height="1080" viewBox="0 0 1920 1080">
  <defs>
    <linearGradient id="nightSky" x1="0" y1="0" x2="0" y2="1">
      <stop offset="0%" stop-color="#0a1628"/>
      <stop offset="40%" stop-color="#132244"/>
      <stop offset="70%" stop-color="#1a3060"/>
      <stop offset="100%" stop-color="#2a4570"/>
    </linearGradient>
    <linearGradient id="cityGlow" x1="0.5" y1="1" x2="0.5" y2="0">
      <stop offset="0%" stop-color="#f0a050" stop-opacity="0.15"/>
      <stop offset="40%" stop-color="#f0a050" stop-opacity="0.05"/>
      <stop offset="100%" stop-color="#f0a050" stop-opacity="0"/>
    </linearGradient>
    <linearGradient id="water" x1="0" y1="0" x2="0" y2="1">
      <stop offset="0%" stop-color="#1a3060"/>
      <stop offset="100%" stop-color="#0a1628"/>
    </linearGradient>
  </defs>
  <!-- Night sky -->
  <rect width="1920" height="1080" fill="url(#nightSky)"/>
  <!-- Stars -->
  <circle cx="100" cy="80" r="1.5" fill="white" opacity="0.7"/>
  <circle cx="250" cy="40" r="1" fill="white" opacity="0.5"/>
  <circle cx="400" cy="100" r="1.2" fill="white" opacity="0.6"/>
  <circle cx="550" cy="30" r="1" fill="white" opacity="0.4"/>
  <circle cx="700" cy="70" r="1.5" fill="white" opacity="0.5"/>
  <circle cx="850" cy="50" r="1" fill="white" opacity="0.6"/>
  <circle cx="1000" cy="90" r="1.2" fill="white" opacity="0.4"/>
  <circle cx="1150" cy="25" r="1.5" fill="white" opacity="0.7"/>
  <circle cx="1300" cy="65" r="1" fill="white" opacity="0.5"/>
  <circle cx="1450" cy="45" r="1.2" fill="white" opacity="0.6"/>
  <circle cx="1600" cy="85" r="1" fill="white" opacity="0.4"/>
  <circle cx="1750" cy="35" r="1.5" fill="white" opacity="0.5"/>
  <circle cx="180" cy="150" r="1" fill="white" opacity="0.3"/>
  <circle cx="500" cy="160" r="1" fill="white" opacity="0.35"/>
  <circle cx="900" cy="140" r="1.2" fill="white" opacity="0.3"/>
  <circle cx="1200" cy="130" r="1" fill="white" opacity="0.4"/>
  <circle cx="1550" cy="155" r="1" fill="white" opacity="0.3"/>
  <circle cx="1850" cy="120" r="1.2" fill="white" opacity="0.35"/>
  <!-- Moon -->
  <circle cx="1650" cy="150" r="40" fill="#e8e0c8" opacity="0.8"/>
  <circle cx="1660" cy="145" r="38" fill="#0a1628" opacity="0.3"/>
  <!-- City glow -->
  <rect width="1920" height="1080" fill="url(#cityGlow)"/>
  <!-- Far buildings (silhouettes) -->
  <rect x="50" y="480" width="80" height="400" fill="#0d1a30"/>
  <rect x="140" y="520" width="60" height="360" fill="#101e35"/>
  <rect x="210" y="440" width="50" height="440" fill="#0d1a30"/>
  <rect x="270" y="500" width="70" height="380" fill="#111f38"/>
  <rect x="350" y="380" width="45" height="500" fill="#0d1a30"/>
  <rect x="405" y="460" width="65" height="420" fill="#101e35"/>
  <rect x="480" y="350" width="55" height="530" fill="#0e1b32"/>
  <rect x="545" y="420" width="80" height="460" fill="#111f38"/>
  <rect x="635" y="300" width="50" height="580" fill="#0d1a30"/>
  <!-- Tall center tower -->
  <rect x="695" y="220" width="40" height="660" fill="#0e1b32"/>
  <rect x="705" y="200" width="20" height="30" fill="#0e1b32"/>
  <!-- Antenna -->
  <line x1="715" y1="150" x2="715" y2="200" stroke="#0e1b32" stroke-width="3"/>
  <circle cx="715" cy="148" r="3" fill="#ff3030" opacity="0.8"/>
  <rect x="745" y="380" width="70" height="500" fill="#111f38"/>
  <rect x="825" y="320" width="55" height="560" fill="#0d1a30"/>
  <rect x="890" y="400" width="80" height="480" fill="#101e35"/>
  <!-- Second tall tower -->
  <rect x="980" y="250" width="45" height="630" fill="#0e1b32"/>
  <line x1="1002" y1="210" x2="1002" y2="250" stroke="#0e1b32" stroke-width="2"/>
  <rect x="1035" y="430" width="60" height="450" fill="#111f38"/>
  <rect x="1105" y="360" width="75" height="520" fill="#0d1a30"/>
  <rect x="1190" y="410" width="50" height="470" fill="#101e35"/>
  <rect x="1250" y="340" width="65" height="540" fill="#0e1b32"/>
  <rect x="1325" y="450" width="55" height="430" fill="#111f38"/>
  <rect x="1390" y="380" width="80" height="500" fill="#0d1a30"/>
  <rect x="1480" y="420" width="45" height="460" fill="#101e35"/>
  <rect x="1535" y="480" width="70" height="400" fill="#0e1b32"/>
  <rect x="1615" y="440" width="55" height="440" fill="#111f38"/>
  <rect x="1680" y="500" width="60" height="380" fill="#0d1a30"/>
  <rect x="1750" y="460" width="80" height="420" fill="#101e35"/>
  <rect x="1840" y="520" width="80" height="360" fill="#0e1b32"/>
  <!-- Window lights (scattered yellow dots on buildings) -->
  <rect x="60" y="500" width="4" height="4" fill="#f0c860" opacity="0.7"/>
  <rect x="70" y="520" width="4" height="4" fill="#f0c860" opacity="0.5"/>
  <rect x="90" y="540" width="4" height="4" fill="#f0c860" opacity="0.6"/>
  <rect x="65" y="560" width="4" height="4" fill="#f0c860" opacity="0.4"/>
  <rect x="80" y="580" width="4" height="4" fill="#f0c860" opacity="0.7"/>
  <rect x="225" y="460" width="4" height="4" fill="#f0c860" opacity="0.6"/>
  <rect x="230" y="490" width="4" height="4" fill="#f0c860" opacity="0.5"/>
  <rect x="220" y="520" width="4" height="4" fill="#f0c860" opacity="0.7"/>
  <rect x="360" y="400" width="4" height="4" fill="#f0c860" opacity="0.5"/>
  <rect x="370" y="430" width="4" height="4" fill="#f0c860" opacity="0.7"/>
  <rect x="365" y="460" width="4" height="4" fill="#f0c860" opacity="0.4"/>
  <rect x="495" y="370" width="4" height="4" fill="#f0c860" opacity="0.6"/>
  <rect x="505" y="400" width="4" height="4" fill="#f0c860" opacity="0.5"/>
  <rect x="510" y="430" width="4" height="4" fill="#f0c860" opacity="0.7"/>
  <rect x="490" y="460" width="4" height="4" fill="#f0c860" opacity="0.4"/>
  <rect x="650" y="320" width="4" height="4" fill="#f0c860" opacity="0.6"/>
  <rect x="655" y="350" width="4" height="4" fill="#f0c860" opacity="0.5"/>
  <rect x="645" y="380" width="4" height="4" fill="#f0c860" opacity="0.7"/>
  <rect x="700" y="250" width="3" height="3" fill="#f0c860" opacity="0.6"/>
  <rect x="710" y="280" width="3" height="3" fill="#f0c860" opacity="0.5"/>
  <rect x="705" y="320" width="3" height="3" fill="#f0c860" opacity="0.7"/>
  <rect x="715" y="360" width="3" height="3" fill="#f0c860" opacity="0.4"/>
  <rect x="700" y="400" width="3" height="3" fill="#f0c860" opacity="0.6"/>
  <rect x="840" y="340" width="4" height="4" fill="#f0c860" opacity="0.5"/>
  <rect x="850" y="370" width="4" height="4" fill="#f0c860" opacity="0.7"/>
  <rect x="845" y="400" width="4" height="4" fill="#f0c860" opacity="0.4"/>
  <rect x="990" y="280" width="3" height="3" fill="#f0c860" opacity="0.6"/>
  <rect x="995" y="320" width="3" height="3" fill="#f0c860" opacity="0.5"/>
  <rect x="1000" y="360" width="3" height="3" fill="#f0c860" opacity="0.7"/>
  <rect x="1120" y="380" width="4" height="4" fill="#f0c860" opacity="0.5"/>
  <rect x="1130" y="410" width="4" height="4" fill="#f0c860" opacity="0.6"/>
  <rect x="1265" y="360" width="4" height="4" fill="#f0c860" opacity="0.7"/>
  <rect x="1270" y="400" width="4" height="4" fill="#f0c860" opacity="0.4"/>
  <rect x="1405" y="400" width="4" height="4" fill="#f0c860" opacity="0.6"/>
  <rect x="1415" y="430" width="4" height="4" fill="#f0c860" opacity="0.5"/>
  <rect x="1430" y="460" width="4" height="4" fill="#f0c860" opacity="0.7"/>
  <rect x="1550" y="500" width="4" height="4" fill="#f0c860" opacity="0.5"/>
  <rect x="1560" y="530" width="4" height="4" fill="#f0c860" opacity="0.6"/>
  <rect x="1630" y="460" width="4" height="4" fill="#f0c860" opacity="0.7"/>
  <rect x="1640" y="490" width="4" height="4" fill="#f0c860" opacity="0.4"/>
  <rect x="1770" y="480" width="4" height="4" fill="#f0c860" opacity="0.6"/>
  <rect x="1780" y="510" width="4" height="4" fill="#f0c860" opacity="0.5"/>
  <rect x="1860" y="540" width="4" height="4" fill="#f0c860" opacity="0.7"/>
  <!-- Water/ground -->
  <rect x="0" y="880" width="1920" height="200" fill="url(#water)"/>
  <!-- Water reflections -->
  <rect x="0" y="880" width="1920" height="3" fill="#2a4570" opacity="0.5"/>
  <line x1="200" y1="920" x2="320" y2="920" stroke="#f0c860" stroke-width="1" opacity="0.15"/>
  <line x1="600" y1="940" x2="750" y2="940" stroke="#f0c860" stroke-width="1" opacity="0.12"/>
  <line x1="900" y1="910" x2="1050" y2="910" stroke="#f0c860" stroke-width="1" opacity="0.15"/>
  <line x1="1300" y1="930" x2="1420" y2="930" stroke="#f0c860" stroke-width="1" opacity="0.1"/>
  <line x1="1600" y1="950" x2="1700" y2="950" stroke="#f0c860" stroke-width="1" opacity="0.12"/>
  <line x1="350" y1="960" x2="500" y2="960" stroke="#f0c860" stroke-width="1" opacity="0.08"/>
  <line x1="1100" y1="970" x2="1250" y2="970" stroke="#f0c860" stroke-width="1" opacity="0.08"/>
</svg>